<svg xmlns="http://www.w3.org/2000/svg" xmlns:xlink="http://www.w3.org/1999/xlink" width="1072" height="300" viewBox="0 0 1072 300"><defs><clipPath id="b"><rect width="1072" height="300"/></clipPath></defs><g id="a" clip-path="url(#b)"><rect width="1072" height="300" fill-opacity="0"/><path d="M61.32,0,8.03-295.65H63.875L95.63-94.9,125.2-295.65h59.13L130.305,0ZM194.545,0V-210.97h59.5V0Zm-.365-246.74v-41.245h59.86v41.245ZM343.465,3.65q-23,0-39.42-8.213a57.393,57.393,0,0,1-25.185-24.09Q270.1-44.53,270.1-66.8v-77.38q0-22.63,8.76-38.325a57.46,57.46,0,0,1,25.367-23.908q16.608-8.212,39.238-8.212,23.36,0,38.872,8.03a52.49,52.49,0,0,1,23.36,23.725q7.847,15.695,7.848,38.69v42.34h-84.68V-61.32a39.715,39.715,0,0,0,1.825,13.14q1.825,5.11,5.11,7.3a13.494,13.494,0,0,0,7.665,2.19,15.374,15.374,0,0,0,7.847-2.007,13.64,13.64,0,0,0,5.475-6.388q2.008-4.38,2.008-12.045V-81.4h54.75v20.44q0,32.12-18.615,48.363T343.465,3.65Zm-14.6-133.225H358.8v-21.17q0-8.395-2.008-13.14a12.533,12.533,0,0,0-5.475-6.57,17.4,17.4,0,0,0-8.212-1.825,12.641,12.641,0,0,0-7.483,2.19q-3.1,2.19-4.927,7.482t-1.825,15.148ZM449.68,0,418.655-210.97h49.64l15.33,119.72L500.05-210.97h43.07L557.355-88.33,575.24-210.97h45.99L589.84,0h-51.1L520.49-118.625,500.05,0ZM634.37,0V-295.65H762.12v44.165H699.7v74.46H754.09V-131.4H699.7V0ZM775.625,0V-295.65h59.13V0Zm81.4,0V-210.97h59.495V0Zm-.365-246.74v-41.245h59.86v41.245ZM922.355,0,967.25-115.705l-42.7-95.265H984.4l22.63,50.735,20.075-50.735h45.625l-41.61,104.025L1078.94,0h-60.59L992.8-58.035,971.63,0Z" transform="translate(-7 296)" fill="#333"/></g></svg>