<svg xmlns="http://www.w3.org/2000/svg" xmlns:xlink="http://www.w3.org/1999/xlink" width="1200" height="300" viewBox="0 0 1200 300"><defs><linearGradient id="a" x1="0.5" x2="0.5" y2="1" gradientUnits="objectBoundingBox"><stop offset="0" stop-color="#0d4d78"/><stop offset="1" stop-color="#03121c"/></linearGradient><clipPath id="b"><rect width="850" height="238"/></clipPath><clipPath id="d"><rect width="1200" height="300"/></clipPath></defs><g id="c" clip-path="url(#d)"><g transform="translate(0 -0.062)"><rect width="301" height="301" transform="translate(-11 2)" fill="rgba(255,255,255,0.12)"/><g transform="translate(-1653.617 -44.157)"><g transform="translate(-151.835 -93.781)"><path d="M1956,138a150,150,0,1,1-150,150A150.055,150.055,0,0,1,1956,138Z" stroke="#000" stroke-width="0" fill-rule="evenodd" fill="url(#a)"/></g></g><g transform="translate(765.12 -642.556) rotate(90)"><path d="M805.458,552.626c-6.483-11.385-17.077-11.385-23.56,0l-55.5,97.243c-6.483,11.385-1.107,20.555,12.017,20.555H849.1c12.966,0,18.5-9.329,12.017-20.555Z" transform="translate(1 -4)" fill="#fff" fill-rule="evenodd"/></g></g><g transform="translate(350 31)" clip-path="url(#b)"><rect width="850" height="238" fill="rgba(0,0,0,0)"/><path d="M50.3-60.877,8.03-295.65H52.324L77.511-136.236,100.964-295.65h46.9L105.014-60.877Zm105.669,0v-167.53h47.193v167.53Zm-.29-195.934v-32.752h47.479v32.752ZM274.083-57.978q-18.243,0-31.266-6.522a45.545,45.545,0,0,1-19.976-19.13q-6.948-12.608-6.948-30.292v-61.447q0-17.97,6.948-30.434a45.6,45.6,0,0,1,20.12-18.985q13.173-6.521,31.122-6.521,18.528,0,30.832,6.377a41.659,41.659,0,0,1,18.528,18.84q6.224,12.463,6.225,30.723v33.622H262.5v32.177a31.57,31.57,0,0,0,1.448,10.434,11.188,11.188,0,0,0,4.053,5.8,10.694,10.694,0,0,0,6.08,1.739,12.183,12.183,0,0,0,6.224-1.594,10.828,10.828,0,0,0,4.343-5.073,23.435,23.435,0,0,0,1.593-9.565v-17.684h43.425v16.231q0,25.506-14.765,38.4T274.083-57.978ZM262.5-163.771h23.743v-16.811q0-6.666-1.593-10.434a9.95,9.95,0,0,0-4.343-5.217,13.787,13.787,0,0,0-6.513-1.449,10.018,10.018,0,0,0-5.935,1.739A11.66,11.66,0,0,0,263.955-190q-1.449,4.2-1.448,12.029ZM358.329-60.877l-24.608-167.53h39.372l12.159,95.069,13.028-95.069h34.161l11.291,97.387,14.186-97.387H494.4L469.5-60.877h-40.53l-14.475-94.2-16.212,94.2Zm146.489,0V-295.65H606.143v35.071H556.634v59.128h43.14v36.23h-43.14V-60.877Zm112.038,0V-295.65h46.9V-60.877Zm64.563,0v-167.53h47.189v167.53Zm-.29-195.934v-32.752h47.479v32.752ZM733.235-60.877l35.609-91.88-33.868-75.649h47.471L800.4-188.118l15.923-40.288h36.188l-33,82.605,37.929,84.924H809.375l-20.265-46.085L772.318-60.877Z" transform="translate(-7.213 295.928)" fill="#333"/></g></g></svg>