<?xml version="1.0" standalone="no"?>
<!DOCTYPE svg PUBLIC "-//W3C//DTD SVG 20010904//EN"
 "http://www.w3.org/TR/2001/REC-SVG-20010904/DTD/svg10.dtd">
<svg version="1.0" xmlns="http://www.w3.org/2000/svg"
 width="303.000000pt" height="303.000000pt" viewBox="0 0 303.000000 303.000000"
 preserveAspectRatio="xMidYMid meet">
<metadata>
Created by potrace 1.14, written by Peter Selinger 2001-2017
</metadata>
<g transform="translate(0.000000,303.000000) scale(0.100000,-0.100000)"
fill="#000000" stroke="none">
<path d="M1389 3016 c-2 -2 -30 -6 -61 -10 -144 -15 -343 -72 -458 -131 -80
-41 -151 -82 -192 -112 -27 -19 -53 -31 -59 -27 -7 4 -9 3 -6 -3 5 -8 -25 -43
-38 -43 -2 0 -15 -10 -29 -22 -13 -13 -30 -28 -38 -34 -38 -31 -173 -184 -208
-237 -14 -20 -28 -37 -32 -37 -5 0 -8 -6 -8 -13 0 -7 -11 -28 -24 -47 -35 -52
-81 -145 -126 -255 -58 -139 -100 -387 -94 -554 3 -70 6 -105 20 -216 16 -135
95 -355 178 -500 17 -31 59 -99 68 -110 4 -5 27 -35 50 -65 229 -303 598 -515
988 -568 71 -9 330 -9 395 1 46 6 62 9 122 21 166 33 352 114 518 225 90 60
268 222 334 305 119 148 226 365 277 558 50 194 61 437 29 618 -3 14 -7 39
-10 56 -9 57 -56 206 -89 288 -75 179 -174 324 -326 476 -102 102 -280 240
-310 240 -5 0 -10 4 -10 8 0 4 -12 13 -27 19 -16 6 -69 29 -119 51 -102 46
-223 82 -322 98 -20 3 -48 8 -62 10 -35 6 -326 15 -331 10z"/>
</g>
</svg>
